<?xml version="1.0" encoding="utf-8"?><svg xmlns="http://www.w3.org/2000/svg" width="24" height="24" viewBox="0 0 18 18"  xmlns:v="https://vecta.io/nano"><path d="M5.2 13c-.5 1-.7 2.1-.7 3.2 0 .8.7 1.5 1.5 1.5s1.5-.7 1.5-1.5c0-.2.1-.5.1-.8-1.1-.4-1.9-1.3-2.3-2.4zm5.3 2.4c0 .2.1.5.1.8 0 .8.7 1.5 1.5 1.5s1.5-.7 1.5-1.5c0-1.1-.2-2.2-.7-3.2-.4 1.1-1.2 2-2.3 2.4zm0 0" fill="rgb(95.686275%,65.098039%,37.647059%)"/><path d="M14.5 7.4c.6-.6.6-1.6 0-2.2-.3-.3-.7-.4-1.1-.4-.4 0-.8.1-1.1.4-.8 1-2 1.5-3.2 1.6-1.3 0-2.4-.6-3.2-1.6-.6-.6-1.6-.6-2.2 0-.3.3-.4.7-.4 1.1 0 .4.1.8.4 1.1.7.7 1.5 1.3 2.4 1.7v1.2h6.1V9.2c.9-.5 1.7-1 2.4-1.7zm0 0" fill="rgb(94.901961%,69.019608%,47.45098%)"/><path d="M5.9 11.4v.2c0 1.7 1.4 3.1 3.1 3.1s3.1-1.4 3.1-3.1v-.2zm0 0" fill="rgb(17.647059%,52.156863%,80%)"/><path d="M9 6c1 0 2-.6 2.5-1.4.2-.4.4-.9.4-1.4C11.8 1.6 10.6.3 9 .3S6.2 1.6 6.2 3.1c0 .5.1 1 .4 1.4C7 5.4 8 6 9 6zm0 0" fill="rgb(95.686275%,65.098039%,37.647059%)"/></svg>