<?xml version="1.0" encoding="utf-8"?><svg xmlns="http://www.w3.org/2000/svg" width="24" height="24" viewBox="0 0 18 18"  xmlns:v="https://vecta.io/nano"><style><![CDATA[.B{fill:rgb(96.862745%,58.039216%,11.372549%)}.C{fill:rgb(23.529412%,70.588235%,84.313725%)}.D{fill:rgb(43.137255%,82.352941%,94.117647%)}]]></style><defs><linearGradient id="A" gradientUnits="userSpaceOnUse" x1="4.8" y1="1.4" x2="4.8" y2="8"><stop offset="0" stop-color="rgb(86.666667%,17.647059%,61.176471%)"/><stop offset="1" stop-color="rgb(49.803922%,23.529412%,87.45098%)"/></linearGradient><linearGradient id="B" gradientUnits="userSpaceOnUse" x1="2.1" y1=".9" x2="10.1" y2=".9"><stop offset="0" stop-color="rgb(86.666667%,17.647059%,61.176471%)"/><stop offset="1" stop-color="rgb(49.803922%,23.529412%,87.45098%)"/></linearGradient><linearGradient id="C" gradientUnits="userSpaceOnUse" x1="2.1" y1="4.5" x2="10.1" y2="4.5"><stop offset="0" stop-color="rgb(86.666667%,17.647059%,61.176471%)"/><stop offset="1" stop-color="rgb(49.803922%,23.529412%,87.45098%)"/></linearGradient><linearGradient id="D" gradientUnits="userSpaceOnUse" x1="4.8" y1="3.5" x2="4.8" y2="31.4"><stop offset="0" stop-color="rgb(86.666667%,17.647059%,61.176471%)"/><stop offset="1" stop-color="rgb(49.803922%,23.529412%,87.45098%)"/></linearGradient></defs><path d="M11.1 5.7v1.2l1.2 9h3.6l1.2-9V5.7zm0 0" fill="rgb(100%,82.352941%,0%)"/><path d="M3.9 1.2h1.8v2.4H3.9zm0 0" fill="url(#A)"/><path d="M8.1 1.5H3.3l.3-.9L8.1.3zm0 0" fill="url(#B)"/><path d="M6.6 5.7H3l.3-2.4h3zm0 0" fill="url(#C)"/><path d="M11.1 5.7h6v1.2h-6zm1.2 10.2h3.6v1.2c0 .2 0 .3-.2.4s-.3.2-.4.2h-2.4c-.2 0-.3 0-.4-.2s-.2-.3-.2-.4zm0 0" class="B"/><path d="M7 17.7H2.6c-.3 0-.5-.2-.6-.5L.9 8.7c0-2 1.6-3.6 3.6-3.6h.6c2 0 3.6 1.6 3.6 3.6l-1.1 8.5c-.1.3-.3.5-.6.5zm0 0" fill="url(#D)"/><path d="M6 12.3h6.6v1.8H6zm0 0" class="C"/><path d="M6 12.3h6.6s-.1-.9-.9-.9c-1.9 0-1.5-.9-1.5-.9-2.3 0-2.3 1.8-4.2 1.8zm0 0" class="D"/><path d="M15.3 9.3c0-.3-.5-.6-1.2-.6s-1.2.3-1.2.6.5.6 1.2.6 1.2-.3 1.2-.6zm0 0" class="B"/><path d="M3.4 7.8h2.9c.2 0 .4.2.4.4v1.1c0 .2-.2.4-.4.4H3.4c-.2 0-.4-.2-.4-.4V8.2c0-.2.2-.4.4-.4zm0 0" fill="rgb(70.196078%,20.392157%,72.941176%)" stroke="rgb(100%,100%,100%)" stroke-miterlimit="10" stroke-width=".2"/><path d="M5.6 13.5H13c.3 0 .5.2.5.5v3.1c0 .3-.2.5-.5.5H5.6c-.3 0-.5-.2-.5-.5V14c0-.3.2-.5.5-.5zm0 0" class="D"/><path d="M10.2 15.6c0 .5-.4.9-.9.9s-.9-.4-.9-.9.4-.9.9-.9.9.4.9.9zm0 0" class="C"/></svg>