<?xml version="1.0" encoding="utf-8"?><svg xmlns="http://www.w3.org/2000/svg" width="24" height="24" viewBox="0 0 18 18"  xmlns:v="https://vecta.io/nano"><path d="M17.7 12.2c0 1.9-3.2 2.5-7.3 2.5s-7.2-.5-7.2-2.5 3.2-3.5 7.2-3.5 7.3 1.6 7.3 3.5zm0 0" fill="rgb(90.980392%,62.745098%,48.627451%)"/><path d="M17.2 10.8v.3c0 2-3.2 2.5-7.2 2.5s-5.6-.3-6.7-1.3c.1 1.9 3.3 2.4 7.2 2.4s7.3-.5 7.3-2.5c0-.5-.2-1-.5-1.4zm0 0" fill="rgb(80%,47.843137%,29.803922%)"/><path d="M6.3 10.7a7 7 0 0 1 .1 1.1c0 .2 0 .4.2.5s.3.2.4.2h0c.3 0 .6-.3.7-.6l-.1-1.5c-.1-.5-.3-1-.5-1.5l-1.3.5c.3.4.4.8.5 1.3zm4.1-2.1H8.8c.5.6.9 1.3 1.1 2 .1.4.1.8.1 1.1 0 .2 0 .3.1.5s.3.2.4.2h.1c.3 0 .6-.3.7-.6l-.1-1.5c-.1-.7-.4-1.3-.8-1.9zm3 2.2c.1.4.1.7 0 1.1 0 .2 0 .4.1.5s.3.2.5.3h.1c.3 0 .6-.3.7-.6.1-.5.1-1 0-1.5l-.4-1.4-1.8-.4c.5.6.8 1.3.9 2zm0 0" fill="rgb(69.803922%,43.137255%,27.843137%)"/><path d="M11.1 4c1.4 1.4-.5 4-3.4 6.8S2.3 15.5.9 14.2.1 12 .8 10.4c.1-.2.2-.3.4-.5s.1-.5.2-.7l1-1.4c.1-.2.5-.3.7-.5s.2-.5.4-.8L5 5.2l1-.5c.3-.1.4-.4.7-.5 1.9-1 3.6-1.1 4.4-.2zm0 0" fill="rgb(80%,47.843137%,29.803922%)"/><path d="M11.1 4c-.3-.3-.6-.5-1-.5 1.4 1.4-.5 4-3.4 6.8s-4.4 4-5.9 3.8h.1c1.4 1.4 4-.5 6.8-3.4s4.7-5.5 3.4-6.8zm0 0" fill="rgb(69.803922%,40.784314%,21.176471%)"/><path d="M2 11c.3.2.6.4.8.7.1.1.3.2.5.3s.4 0 .5-.2h.1c.2-.3.2-.6 0-.9-.3-.4-.7-.7-1.1-1s-.9-.5-1.4-.7l-.6 1.2c.4.1.9.3 1.3.5zm1.5-4.4c-.4.4-.8.8-1.1 1.2.8 0 1.6.2 2.2.7.3.2.6.5.8.8.1.1.3.2.5.2s.4-.1.5-.2h.1c.3-.2.3-.6.1-.9-.3-.4-.7-.8-1.1-1-.6-.4-1.2-.6-1.9-.8zM7.1 6c.3.2.6.5.8.8.1.1.3.2.5.3s.4 0 .5-.2H9c.1-.1.2-.3.2-.5S9.1 6 9 5.9c-.3-.4-.7-.7-1.1-1s-.8-.6-1.3-.7a12 12 0 0 0-1.6 1c.8.1 1.5.3 2.1.8zm0 0" fill="rgb(94.901961%,83.529412%,61.176471%)"/></svg>