<?xml version="1.0" encoding="utf-8"?><svg xmlns="http://www.w3.org/2000/svg" xmlns:xlink="http://www.w3.org/1999/xlink" width="24" height="24" viewBox="0 0 18 18" xmlns:v="https://vecta.io/nano"><style><![CDATA[.a{stroke:none}.b{filter:url(#A)}.c{fill:rgb(0%,0%,0%)}.d{fill-opacity:.1}.e{fill-rule:nonzero}.f{fill:rgb(13.72549%,12.156863%,12.54902%)}.g{fill-opacity:1}.h{fill:rgb(20.392157%,63.137255%,84.313725%)}.i{fill:rgb(90.196078%,91.372549%,92.941176%)}.j{fill:rgb(69.411765%,90.980392%,100%)}.k{fill:rgb(96.862745%,58.039216%,11.372549%)}.l{fill:rgb(3.137255%,21.568627%,36.862745%)}.m{fill:rgb(24.313725%,68.627451%,56.862745%)}]]></style><defs><filter id="A" x="0%" y="0%" width="100%" height="100%"><feColorMatrix in="SourceGraphic" values="0 0 0 0 1 0 0 0 0 1 0 0 0 0 1 0 0 0 1 0"/></filter><mask id="B"><g class="b"><path d="M0 0h18v18H0z" class="a c d"/></g></mask><clipPath id="C"><path d="M0 0h18v18H0z"/></clipPath><g id="D" clip-path="url(#C)"><path d="M5.1 15v-1.2c0-.1.1-.2.1-.2h-.5c-.1 0-.1.1-.1.2V15c0 .1.1.2.1.2h.5c-.1 0-.1-.1-.1-.2zm0 0" class="a e f g"/></g><mask id="E"><g class="b"><path d="M0 0h18v18H0z" class="a c d"/></g></mask><clipPath id="F"><path d="M0 0h18v18H0z"/></clipPath><g id="G" clip-path="url(#F)"><path d="M4.1 15.7V15c0-.1.1-.2.2-.2h-.9c-.1 0-.2.1-.2.2v.7c0 .1.1.2.2.2h.9c-.1 0-.2-.1-.2-.2zm0 0" class="a e f g"/></g><mask id="H"><g class="b"><path d="M0 0h18v18H0z" class="a c d"/></g></mask><clipPath id="I"><path d="M0 0h18v18H0z"/></clipPath><g id="J" clip-path="url(#I)"><path d="M2.9 16.3c0-.3.2-.5.5-.5H2.3c-.3 0-.5.2-.5.5s.2.5.5.5h1.1c-.3 0-.5-.2-.5-.5zm0 0" class="a e f g"/></g><mask id="K"><g class="b"><path d="M0 0h18v18H0z" class="a c d"/></g></mask><clipPath id="L"><path d="M0 0h18v18H0z"/></clipPath><g id="M" clip-path="url(#L)"><path d="M11.3 3.5c0-.7.5-1.2 1.1-1.4h-.2c-.4 0-.7.1-1 .4s-.4.6-.4 1c0 .8.6 1.4 1.4 1.4h.2c-.7-.1-1.2-.7-1.1-1.4zm0 0" class="a e f g"/></g><path id="N" d="M3.7 16.7l-.2.2c-.1 0-.1.1-.1.1s0 .1.1.2l.2.1.2-.1.5-.5zm0 0"/></defs><path d="M13.4 7.8c0 .6-.5 1.1-1.1 1.1s-1.2-.5-1.2-1.1c0-.7.5-1.2 1.2-1.2.6 0 1.1.6 1.1 1.2zm0 0" class="i"/><path d="M14.2 10l-.1-.1c-.4.1-.8 0-1.1-.3-.4-.4-.4-1.2 0-1.6s1.2-.4 1.6 0c.2.1.3.3.3.5.2 0 .4.1.6.2.3.4.3.9 0 1.3-.4.3-.9.3-1.3 0zm0 0" fill="rgb(84.313725%,96.862745%,100%)"/><path d="M13.5 8.8h-.4c0-.2-.1-.4-.2-.5s-.3-.2-.6-.2c-.2 0-.5.1-.6.4-.1-.4-.4-.6-.8-.7h-.1c0-.5-.4-.8-.8-.8s-.8.4-.8.8V8c-.5 0-.9.4-.9.8h-.5c-.4 0-.7.3-.7.7s.3.7.7.7h5.8c.4 0 .7-.3.7-.7s-.3-.7-.7-.7zm0 0" class="j"/><path d="M6.3 16.4c-.2 0-.4-.2-.4-.4l-1-6c0-.1.1-.1.2-.1h10.3c.1 0 .2 0 .2.1s.1.2 0 .3l-1 5.7c-.1.2-.2.3-.4.4zm0 0" fill="rgb(100%,82.352941%,0%)"/><path d="M6.8 16l-1-6c0-.1.1-.1.2-.1h-.9c-.1 0-.2 0-.2.1s-.1.2 0 .3l1 5.7c.1.2.2.3.4.4h.9c-.2 0-.4-.2-.4-.4zm0 0" class="k"/><path d="M16.3 10.2c0 .1-.1.2-.1.2H4.3c-.1 0-.1-.1-.1-.2v-.6c0-.1.1-.2.1-.2h11.8c.1 0 .1.1.1.2zm0 0" class="l"/><path d="M10.1 9.5l-.1.1H4.3c-.1 0-.1-.1-.1-.1v-.7c0-.1.1-.2.1-.2H10c.1 0 .1.1.1.2zm0 0" class="h"/><path d="M11.3 12.5c0 .6-.5 1.1-1.1 1.1s-1.1-.5-1.1-1.1.5-1.1 1.1-1.1 1.1.5 1.1 1.1zm0 0" class="k"/><path d="M14.8 15.4h-.2L10.2 13c-.2-.1-.3-.4-.2-.6s.4-.3.6-.2l4.4 2.4c.1 0 .2.1.2.2v.3c0 .1-.1.1-.1.2s-.2.1-.2 0zm0 0" class="l"/><path d="M5 2.8v11.5h.7V2.8zm0 0" fill="rgb(67.058824%,80%,82.745098%)"/><path d="M5.6 2.8v-2c0-.1-.1-.2-.2-.2h-.3c-.1 0-.2.1-.2.2v2zm0 0" class="h"/><path d="M6.1 15c0 .1-.1.2-.1.2H4.7c-.1 0-.1-.1-.1-.2v-1.2c0-.1.1-.2.1-.2H6c.1 0 .1.1.1.2zm0 0" class="m"/><use xlink:href="#D" mask="url(#B)"/><path d="M7.4 15.7c0 .1-.1.2-.2.2H3.4c-.1 0-.2-.1-.2-.2V15c0-.1.1-.2.2-.2h3.8c.1 0 .2.1.2.2zm0 0" class="h"/><use xlink:href="#G" mask="url(#E)"/><g fill="rgb(52.54902%,83.529412%,70.980392%)"><use xlink:href="#N"/><use xlink:href="#N" x="-.9"/><path d="M2.3 16.7H2l-.2.3c-.1 0-.1.1-.1.2s0 .1.1.1l.2.1c.1 0 .1-.1.1-.1l.6-.5zm3.9 0H4.6l-.2.2c-.1 0-.1.1-.1.1s0 .1.1.2l.2.1.2-.1.4-.4v.2c0 .1.1.3.2.3.2 0 .2-.1.2-.3v-.2l.7.5.2-.1c.1-.1.1-.2 0-.3zm0 0"/><path d="M7 16.7h-.7l.5.5.2.1.2-.1c.1-.1.1-.2 0-.3zm0 0"/><path d="M7.9 16.7h-.7l.5.5.2.1.2-.1s.1-.1.1-.2 0-.1-.1-.1zm0 0"/><path d="M8.9 17l-.3-.4-.3.1H8l.5.5.2.1.2-.1c.1 0 .1-.1.1-.2s0-.1-.1-.1zm0 0"/></g><path d="M8.8 16.3c0 .3-.2.5-.5.5h-6c-.3 0-.5-.2-.5-.5s.2-.5.5-.5h6.1c.3 0 .5.2.5.5zm0 0" class="m"/><use xlink:href="#J" mask="url(#H)"/><path d="M13.6 3.5c0-.8-.6-1.4-1.4-1.4s-1.4.6-1.4 1.4.6 1.4 1.4 1.4 1.4-.6 1.4-1.4zm0 0" class="j"/><use xlink:href="#M" mask="url(#K)"/><path d="M15.4 5.8c0-.4-.3-.8-.7-.8s-.7.4-.7.8.3.8.7.8.7-.4.7-.8zm0 0" class="i"/></svg>