<?xml version="1.0" encoding="utf-8"?><svg xmlns="http://www.w3.org/2000/svg" width="24" height="24" viewBox="0 0 18 18"  fill="rgb(55.686275%,28.235294%,7.843137%)" xmlns:v="https://vecta.io/nano"><path d="M12.7 11h-.1c-.5-.1-1-.4-1.3-.8-.2-.2-.4-.3-.7-.4l-.2-.2c-.3-1.9.1-3.8 1.1-5.3C10.9 3.5 10 3 9 3s-1.9.4-2.6 1.1c0 .1.1.1.1.2 1 1.4 1.4 3 1.1 4.7v.2c0 .4-.1.7-.5.7-.2.1-.4.3-.6.5-.2.3-.5.5-.8.5l-.4.1v-.5c0-.4-.2-.7-.5-.9-.5-.3-.7-.8-.7-1.3v-.7c0-.3.2-.6.4-.8.3-.2.4-.6.5-.9l.4-1.1c0-.1 0-.2-.1-.3-.2-.4-.5-.7-.7-1s-.2-.8.1-1.1c.3-.2.6-.2.8 0l1.1.7c.1.1.3.1.4 0 1.2-.6 2.6-.6 3.7 0 .2.1.2.1.4 0l1.1-.7c.3-.2.7-.2.9.1s.3.6.1 1l-.7 1c-.1.1-.1.3-.1.5.2.4.3.8.4 1.2 0 .3.2.5.4.7.3.2.5.6.5 1 .1.4 0 .9-.2 1.3-.1.1-.1.3-.2.4-.5.3-.8.8-.7 1.4v.2s-.1 0-.1.1zm-7-6.9l.8-.7-1-.7c-.2-.1-.3-.2-.5 0-.1.1-.1.3 0 .5zm6.5.1l.7-1c.1-.1 0-.3-.1-.4h-.4l-1.1.7zm.4 4.1c0-.3-.1-.5-.4-.5-.2.1-.4.3-.4.6 0 .2.1.4.4.4.3-.1.4-.3.4-.5zm-7.3-.1c0 .1 0 .3.1.4s.2.2.4.2.3-.2.3-.4-.2-.6-.5-.5-.3.2-.3.4zm10.1-4.6c.7 0 1.3.2 2 .4.2.1.4.4.3.6-.2 1.2-.9 2.1-2 2.6-.4.1-.7.2-1.1.2-.2 0-.2-.1-.3-.2-.1-.3-.3-.6-.5-.8-.1-.2-.2-.4-.3-.5l-.3-1c-.1-.1 0-.2.1-.3.6-.6 1.4-.9 2.2-1zm0 0"/><path d="M2.6 3.7c.9 0 1.7.3 2.3.9 0 .1.1.2 0 .2l-.3 1.1-.3.4c-.3.2-.5.6-.6.9 0 .1-.1.2-.2.2-.5.1-1.1 0-1.5-.3C1.1 6.6.5 5.7.4 4.6.3 4.4.4 4.1.7 4c.6-.2 1.3-.4 1.9-.4zm10.5 9c.1 1.1-.5 1.7-1.7 2.2-.3.1-.6.1-.8-.1-1-.3-2.1-.3-3.1.1-.5.1-.9 0-1.3-.2l-.5-.3c-.4-.3-.7-.8-.7-1.3-.1-.2-.1-.5 0-.7 0-.5.3-1 .8-1.1.4-.1.8-.3 1.1-.6.3-.4.8-.6 1.3-.6H10c.5 0 1 .2 1.3.6.3.3.7.5 1.1.6.5.1.9.6.8 1.1.1.1 0 .2 0 .4zM9 10.5h-.9c-.4 0-.8.2-1 .5-.3.4-.7.6-1.2.7-.2 0-.3.1-.4.2s-.2.3-.2.5v.7c0 .4.2.8.5 1l.5.4c.3.2.7.2 1 .1l1.1-.2c.7-.1 1.3-.1 2 .2.5.2 1 .1 1.4-.2l.2-.2c.4-.2.6-.6.6-1.1v-.6c0-.2 0-.3-.2-.5s-.3-.2-.4-.2c-.5-.1-1-.4-1.3-.8-.2-.3-.6-.4-1-.4zm0 0"/><path d="M6.8 15.4L9 15c.7.1 1.4.2 2.2.4-.1.3-.4.4-.7.4H7.6c-.3 0-.6-.2-.8-.4zm.6-3.3c.3 0 .5.1.7.3s.2.5.1.8c-.1.1-.2.2-.3.2 0-.1-.1-.2-.1-.3 0-.2-.1-.5-.3-.6s-.4 0-.6.2l-.3.1c0-.1-.1-.3 0-.4.2-.2.4-.4.7-.4zm2.3.9c0-.4.3-.8.7-.9s.7.1 1 .4c.1.1 0 .2 0 .4l-.3-.1c-.1-.2-.4-.2-.6-.2-.2.1-.3.3-.3.5.1.2.1.3-.1.4s-.2-.2-.2-.4c0 0-.1 0-.1-.1zm0 0"/></svg>