<?xml version="1.0" encoding="utf-8"?><svg xmlns="http://www.w3.org/2000/svg" xmlns:xlink="http://www.w3.org/1999/xlink" width="24" height="24" viewBox="0 0 18 18" xmlns:v="https://vecta.io/nano"><style><![CDATA[.G{fill:rgb(63.921569%,83.137255%,96.862745%)}.H{fill:rgb(81.960784%,20%,18.823529%)}.I{fill:rgb(96.862745%,27.45098%,26.27451%)}]]></style><path d="M15.6 4.5h-.4c.5-.6.4-1.6-.2-2.1s-1.6-.4-2.1.2c-.4-.7-1.1-1.1-1.9-1.1-.9 0-1.7.5-2 1.4-.3-.2-.8-.3-1.2-.1s-.7.4-.9.8-.2.9-.1 1.3c-.3.2-.6.5-.7.9s0 .8.2 1.1c.2.5.7.8 1.3.7h7.8c.8 0 1.5-.7 1.5-1.5s-.7-1.5-1.5-1.5zm0 0" fill="rgb(20.784314%,65.882353%,44.705882%)"/><path d="M9.9 7.2c0 1.5-1.2 2.7-2.7 2.7S4.5 8.7 4.5 7.2s1.2-2.7 2.7-2.7 2.7 1.2 2.7 2.7zm0 0" fill="rgb(96.862745%,69.019608%,18.823529%)"/><path d="M14.7 8.1c0 1.5-1.2 2.7-2.7 2.7S9.3 9.6 9.3 8.1s1.2-2.7 2.7-2.7 2.7 1.2 2.7 2.7zm0 0" fill="rgb(69.411765%,74.117647%,43.921569%)"/><path d="M6 5.7c0 .2 0 .3-.2.4s-.3.2-.4.2H1.8c-.2 0-.3 0-.4-.2s-.2-.3-.2-.4c0-.7.3-1.3.8-1.7.4-.5.7-1.1.7-1.7v-.1h1.8v.1c0 .7.3 1.3.7 1.7.5.4.8 1.1.8 1.7zm0 0" fill="rgb(91.372549%,93.333333%,94.901961%)"/><path d="M6 5.7c0 .2 0 .3-.2.4s-.3.2-.4.2H1.8c-.2 0-.3 0-.4-.2s-.2-.3-.2-.4c0-.7.3-1.3.8-1.7l.3-.4h2.6l.3.4c.5.4.8 1.1.8 1.7zM1.8 9.9h3.6c.2 0 .3 0 .4.2s.2.3.2.4v2.7c0 .7-.5 1.2-1.2 1.2H2.4c-.7 0-1.2-.5-1.2-1.2v-2.7c0-.2 0-.3.2-.4s.3-.2.4-.2zm0 0" class="G"/><path d="M2.7.9h1.8c.2 0 .3 0 .4.2s.2.3.2.4v.6h-3v-.6c0-.2 0-.3.2-.4s.3-.2.4-.2zm0 0" fill="rgb(17.647059%,52.156863%,80%)"/><g class="G"><use xlink:href="#C"/><use xlink:href="#C" y="1.8"/></g><g fill="rgb(60%,78.039216%,90.980392%)"><use xlink:href="#A"/><use xlink:href="#A" y="1.8"/><use xlink:href="#A" y="3.6"/></g><path d="M15.7 17.1H2.3c-.4 0-.8-.3-.9-.7L.3 7.5h17.4l-1.1 8.9c-.1.4-.5.7-.9.7zm0 0" fill="rgb(100%,82.352941%,0%)"/><path d="M.3 7.5h17.4v1.8H.3zm0 0" class="H"/><g fill="rgb(96.862745%,58.039216%,11.372549%)"><use xlink:href="#B"/><use xlink:href="#B" x="1.2" y="-3"/><use xlink:href="#B" x="1.2"/><use xlink:href="#B" x="2.4" y="-3"/><use xlink:href="#B" x="2.4"/><use xlink:href="#B" x="3.6" y="-3"/><use xlink:href="#B" x="3.6"/><use xlink:href="#B" x="8.4" y="-3"/><use xlink:href="#B" x="8.4"/><use xlink:href="#B" x="9.6" y="-3"/><use xlink:href="#B" x="9.6"/><use xlink:href="#B" x="10.8" y="-3"/><use xlink:href="#B" x="10.8"/><use xlink:href="#B" x="12" y="-3"/><use xlink:href="#B" x="12"/><use xlink:href="#B" x="6" y="-3"/><use xlink:href="#B" x="6"/><use xlink:href="#B" x="4.8" y="-3"/><use xlink:href="#B" x="4.8"/><use xlink:href="#B" x="7.2" y="-3"/><use xlink:href="#B" x="7.2"/></g><path d="M13 8.4l3.6 6.6c.2.3.5.4.8.2s.4-.5.2-.8L14 7.8zm0 0" class="I"/><use xlink:href="#B" y="-3" class="H"/><path d="M5 8.4L1.4 15c-.2.3-.5.4-.8.2s-.4-.5-.2-.8L4 7.8zm0 0" class="I"/><defs><path id="A" d="M5.4 6.6H1.8c-.2 0-.3-.1-.3-.3s.1-.3.3-.3h3.6c.2 0 .3.1.3.3s-.1.3-.3.3zm0 0"/><path id="B" d="M3 15.9c-.2 0-.3-.1-.3-.3v-1.8c0-.2.1-.3.3-.3s.3.1.3.3v1.8c0 .2-.1.3-.3.3zm0 0"/><path id="C" d="M1.8 6.3h3.6c.3 0 .6.3.6.6v.6c0 .3-.3.6-.6.6H1.8c-.3 0-.6-.3-.6-.6v-.6c0-.3.3-.6.6-.6zm0 0"/></defs></svg>