<?xml version="1.0" encoding="utf-8"?><svg xmlns="http://www.w3.org/2000/svg" width="24" height="24" viewBox="0 0 18 18"  xmlns:v="https://vecta.io/nano"><style><![CDATA[.B{fill:rgb(63.921569%,83.137255%,96.862745%)}.C{fill:rgb(22.352941%,16.078431%,37.647059%)}.D{fill:rgb(17.647059%,52.156863%,80%)}.E{fill:rgb(100%,100%,100%)}.F{fill:rgb(1.176471%,16.862745%,27.843137%)}]]></style><path d="M16.6 4.8H11c-.3 0-.6-.3-.6-.6V.8c0-.3.3-.5.6-.5h5.6c.3 0 .6.2.6.5v3.4c0 .3-.3.6-.6.6zm0 0" fill="rgb(3.137255%,21.568627%,36.862745%)"/><path d="M7.6 17.7H.8c-.3 0-.5-.2-.5-.5V1.4c0-.3.1-.6.3-.8s.5-.3.8-.3H7c.3 0 .6.1.8.3s.3.5.3.8v15.7c0 .3-.2.5-.5.5zm0 0" class="B"/><g class="D"><path d="M4.8 3.7H3.7c-.2 0-.3-.1-.3-.3v-.5c0-.2.1-.3.3-.3h1.1c.2 0 .3.1.3.3v.5c0 .2-.1.3-.3.3zm-4 11.2V.4c-.3.2-.5.6-.5 1v15.7c0 .3.2.5.5.5h6.8c.3 0 .5-.2.5-.5h-5c-1.3 0-2.3-1-2.3-2.3zm0 0"/><path d="M.3 10.1h7.9v.5H.3zm0-3.6h.8V7H.3zm0 0"/><path d="M.3 9h.8v.5H.3zm0 0"/><path d="M1.1 9.5c-.1 0-.3-.1-.3-.2 0-.2.1-.3.3-.3V7C1 7 .9 6.9.8 6.8c0-.2.1-.3.3-.3.3 0 .5.2.5.5v2c0 .3-.2.5-.5.5zm-.8 1.7h.8v.6H.3zm0 2.6h.8v.5H.3zm0 0"/><path d="M1.1 14.3c-.2 0-.3-.1-.3-.3s.1-.3.3-.3v-1.9c-.2 0-.3-.1-.3-.3s.1-.3.3-.3c.3 0 .5.3.5.6v1.9c0 .2 0 .3-.1.4s-.2.2-.4.2zm0 0"/></g><path d="M4.8 3.7H3.7c-.2 0-.3-.1-.3-.3v-.2H5v.2c0 .1 0 .2 0 .2s-.1.1-.2.1zm0 0" fill="rgb(76.470588%,86.666667%,100%)"/><path d="M17.2 17.7h-6.8c-.3 0-.5-.2-.5-.5V8.7c0-.3.2-.5.5-.5h6.8c.3 0 .5.2.5.5v8.5c0 .3-.2.5-.5.5zm0 0" fill="rgb(26.666667%,17.647059%,44.705882%)"/><path d="M10.4 15.2v-7c-.3 0-.5.2-.5.5v8.5c0 .3.2.5.5.5h6.8c.3 0 .5-.2.5-.5h-5.3c-1.1 0-2-.9-2-2zm0 0" class="C"/><path d="M16.6 9.5h-.8c-.1 0-.2-.1-.2-.2 0-.1.1-.3.2-.3h.8c.2 0 .3.1.3.3 0 .1-.2.2-.3.2zm0 0" class="E"/><path d="M16 14c.1.9-.2 1.8-1 2.3s-1.7.5-2.5 0-1.1-1.4-1-2.3c.2-1.1 1.1-1.9 2.3-1.9s2.1.8 2.3 1.9zm0 0" class="C"/><path d="M15.5 14c-.2.8-.9 1.4-1.7 1.4s-1.6-.6-1.7-1.4c.2-.8.9-1.4 1.7-1.4s1.6.6 1.7 1.4zm-5.7-3.9h7.9v.5H9.8zm0 0" class="E"/><path d="M9.8 10.1h.5v.5h-.5zm1.2-.6v.6c0 .1.1.2.2.2h1.1c.1 0 .3-.1.3-.2v-.6c0-.1-.2-.2-.3-.2h-1.1c-.1 0-.2.1-.2.2zm3.9.3c0 .3-.2.5-.5.5s-.5-.2-.5-.5.2-.5.5-.5.5.2.5.5zm0 0" class="C"/><path d="M13.9 14.5c-.3-.1-.5-.3-.7-.6 0-.2-.1-.3-.1-.4 0-.1 0-.2-.1-.2s-.2 0-.2.1c-.2.3-.2.6-.2.9.1.4.4.7.7.8s.8.1 1.1-.2c.1-.1.1-.3-.1-.3zm0 0" fill="rgb(81.960784%,20%,18.823529%)"/><path d="M11 3.4V.3c-.3 0-.6.2-.6.5v3.4c0 .3.3.6.6.6h5.6c.3 0 .6-.3.6-.6h-5.3c-.5 0-.8-.4-.8-.8zm0 0" class="F"/><path d="M14 3.7h-2.2c-.2 0-.3-.1-.3-.3V1.7c0-.1.2-.2.3-.2H14c.1 0 .3.1.3.2v1.7c0 .2-.1.3-.3.3zm0 0" class="B"/><path d="M13.2 3.1c-.6 0-1.1-.5-1.1-1.1v-.5h-.2c-.1 0-.3.1-.3.2v1.7c0 .2.1.3.3.3H14c.2 0 .3-.1.3-.3v-.2zm0 0" class="D"/><path d="M15.7 1.4V.3h-.5v4.5h.5V2.5c0-.1.2-.2.3-.2h1.1v-.6H16c-.1 0-.3-.1-.3-.2zm0 0" class="B"/><path d="M15.2 4.2h.5v.6h-.5zm0 0" class="F"/></svg>