<?xml version="1.0" encoding="utf-8"?><svg xmlns="http://www.w3.org/2000/svg" width="24" height="24" viewBox="0 0 18 18"  xmlns:v="https://vecta.io/nano"><style><![CDATA[.K{fill:rgb(89.803922%,38.823529%,32.54902%)}.L{fill:rgb(83.529412%,83.921569%,85.882353%)}.M{fill:rgb(26.666667%,17.647059%,44.705882%)}.N{fill:rgb(70.196078%,64.705882%,71.764706%)}.O{fill:rgb(22.352941%,16.078431%,37.647059%)}]]></style><path d="M6.3 13.1v-2.2c0-.1 0-.1.1-.2.2-.7 1.7-1 4.1-1s4.4.3 5.6 1h.2l.4.3v2.4l-.6-.4c-1.2-.6-3.1-.9-5.6-.9s-4 .4-4.2 1.1zm0 0" class="K"/><g class="L"><path d="M12.1 12.4V10l.3-.1v2.4zm-3.2-.1l-1 .1c0-.8.1-1.6.1-2.3.3-.1.6-.2 1-.2h.5c.1-.1.2-.1.4 0h.1v2.4h-.9zm2.9 0l-.5-.1V9.8c.2 0 .3 0 .5.1l.1.1-.1 2.3zm0 0"/><path d="M10.9 12.5v-2.4c0-.2.2-.3.5-.3v2.3c-.2.1-.5.2-.5.4zm0 0"/></g><path d="M12.4 10.3v2.4c0-.1 0-.1-.1-.2l-.1-.1V10c0 .1.1.1.1.1l.1.2zm0 0" class="K"/><g class="L"><path d="M12.3 12.7v-2.4h.1l-.1 2.4zm0 0"/><path d="M12.2 12.9v-2.4c0-.1.1-.1.1-.1v2.4c-.1 0-.1.1-.1.1zm0 0"/></g><g class="K"><path d="M11.9 10.1v2.3c0 .3-.5.5-.9.3h0c-.1-.1-.1-.1-.1-.2v-2.4c0 .1 0 .2.1.2h.1c.4.2.9-.1.9-.3zm0 0"/><path d="M11.8 9.9l.1.1c.1.3-.5.6-.9.4h0c-.1-.1-.1-.2-.1-.2 0-.2.2-.3.5-.3.2 0 .3 0 .5.1zm0 0"/></g><path d="M15.6 13c-1-.5-2.1-.7-3.2-.8V9.8a9 9 0 0 1 3.2.8h.1V13zm-8.9.1c-.1.1-.1.2-.1.3V11c0-.1.1-.2.1-.3.3-.3.7-.5 1.1-.6H8v2.3c0 .8-.1.1-.1.1-.4.1-.8.3-1.1.6zm0 0" class="L"/><path d="M9.8 10.1l-.1 2.5-2.1.7c-.3.2-.5.4-.5.5v-2.4c0-.2.2-.4.5-.5.3-.2.6-.3.9-.4l1.2-.3c.1 0 .1-.1.1-.1zm0 0" class="K"/><g class="L"><path d="M9 13l-1 .4V11l1-.4zm0 0"/><path d="M8 13.4c-.2.1-.3.1-.3.2v-2.3c0-.1.2-.2.3-.3zm0 0"/></g><path d="M7.1 11.5v2.4h-.2c-.2-.1-.3-.3-.4-.5V11c0 .2.2.4.4.5H7s.1.1.1 0zm0 0" class="K"/><g class="L"><path d="M10 12.8c-.4 0-.7 0-1 .2v-2.4c.3-.2.7-.2 1-.2l.7.3c0 .1.1.2.1.2v2.4c0-.1 0-.2-.1-.2l-.2-.1zm0 0"/><path d="M10.8 14.1c-.1-.2-.1-.3-.1-.5v-2.4c0 .2 0 .3.1.5zm0 0"/><path d="M10.9 14.2c0-.1 0-.1-.1-.1v-2.3 2.4zm0 0"/></g><path d="M10.9 11.9v2.4c0 .2-.1.3-.2.4-.3.1-.7.2-1.1.1-.3-.1-.6-.2-.9-.4h-.1l-.9-.5v-2.5l.2.2.8.4c.3.2.6.3.9.4.4.1.7.1 1.1-.1.1-.1.2-.2.2-.4zm0 0" class="K"/><path d="M6.3 13.3v-2.4c0 .4.3.7.8 1 .3.2.7.3 1 .4v2.4a3 3 0 0 1-1-.4c-.5-.3-.8-.7-.8-1zm0 0" class="L"/><g class="K"><path d="M15.7 10.7v2.4c0 .1-.8.2-1 .2s-.5 0-.7-.1l-.4-.1c-.3-.1-.6-.1-.8-.1h-.5s-.1 0-.1-.1v-2.4c0 .1 0 .1.1.1h.5c.3 0 .6 0 .8.1l.4.1c.2.1.5.1.7.1s1-.1 1-.2zm0 0"/><path d="M15.6 10.6h.1c.1.2-.8.2-1 .2-.2.1-.5 0-.7-.1l-.4-.1c-.3-.1-.6-.1-.8-.1h-.5c-.1 0-.1-.1-.1-.1l.1-.1s0-.2-.1-.2l-.1-.2.3-.1a9 9 0 0 1 3.2.7zm0 0"/></g><path d="M11.4 13.6c0 .1-.1.2-.1.2v-2.3c0-.1 0-.2.1-.3 0 .7.2 1.7 0 2.4zm0 0" class="L"/><path d="M17.3 14c-.1-.3-.3-.5-.6-.6V11l.6.6zm0 0" class="K"/><path d="M13.1 13.2c-.6-.2-1.3 0-1.7.4v-2.4c.5-.4 1.1-.6 1.7-.4l1 .2c.5.1 1.1-.1 1.6-.1l.6.3.2.3V14l-.2-.3-.6-.3c-.5-.1-1.1.1-1.6.1zm0 0" class="L"/><path d="M9.8 10h.1c0 .1 0 .1-.1.2l-1.2.3c-.3.1-.6.2-.9.4-.3.1-.5.3-.5.5h-.1c0 .1-.1 0-.1 0h-.1c-.2 0-.3-.2-.3-.3s0-.3.1-.5c.3-.3.7-.5 1.1-.6l1.1-.2h.5c.1-.1.2-.1.4 0zm0 0" class="K"/><g class="L"><path d="M16.6 14c-.1-.1 0-.1 0-.2v-2.2c0 .1.1.1.1.2h.1v2.3c0-.1-.1-.1-.1-.2zm0 0"/><path d="M16.7 14.2v-2.3c.1.1.1.2.1.4v2.3c0-.1-.1-.2-.1-.4zm0 0"/></g><path d="M17.5 14.4c0-.2-.1-.3-.2-.4v-2.4l.2.4v2.6c0-.1 0-.2-.1-.2zm-7-3.8l.2.1c0 .1.1.2.1.4s0 .4.1.6v.1c0 .2-.1.4-.2.5-.3.2-.7.2-1.1.1-.3 0-.6-.2-.9-.4h-.1l-.9-.6c-.1-.2.1-.2.3-.4l1-.4c.3-.2.7-.2 1-.2l.5.2zm7.1 4v-2.4c0 .1.1.2.1.2v2.2zm0 0" class="K"/><path d="M9.5 13.1v2.4c-.2-.2-.5-.4-.8-.5l-.7-.4v-2.4l.7.4c.3.1.5.3.7.5zm0 0" class="L"/><g class="K"><path d="M16.9 12.2v2.4c-.1.2-.2.3-.4.4h-.6c-.4-.2-.8-.3-1.3-.4-.8 0-1.7.2-2.4.1-.2 0-.3-.1-.5-.2s-.4-.3-.4-.6v-2.4c0 .2.2.4.4.5.1.1.3.2.5.2.7.2 1.6-.1 2.4-.1.4 0 .9.2 1.3.4h.2c.1.1.3.1.4 0 .2-.1.3-.2.4-.4zm0 0"/><path d="M16.2 11.2l.2.1c.1.1.2.3.3.5s.2.4.2.5c-.1.2-.2.3-.4.4-.1.1-.3.1-.4 0h-.2c-.4-.2-.8-.3-1.3-.4-.8 0-1.7.2-2.4.1-.2 0-.3-.1-.5-.2s-.3-.2-.4-.3-.1-.3 0-.5c.5-.4 1.1-.6 1.7-.4l1 .2c.5.1 1.1-.1 1.6-.1l.4.2zm0 0"/></g><g class="L"><path d="M11.3 14.8c-.5 0-1 .4-1 .7v-2.3c.1-.4.5-.8 1-.7.7 0 1.1.4 1.7.5.4 0 .8 0 1.1-.2.2-.2.5-.2.8-.2V15c-.3-.1-.6 0-.8.1-.3.2-.7.3-1.1.2-.6-.1-1.1-.5-1.7-.5zm5.1.7v-2.4h.1v2.4zm0 0"/><path d="M15.8 15.4c-.2.1-.4.1-.5.3v-2.4c.1-.2.3-.3.5-.3s.4 0 .5.1c0 0 .1 0 .1.1l-.1 2.3c-.2-.1-.4-.1-.5-.1zm.6.1v-2.4l.1.1v2.4c0-.1 0-.1-.1-.1zm0 0"/><path d="M15.3 15.7c-.1 0-.1.1-.1.1v-2.4c0-.1 0-.1.1-.1zm0 0"/><path d="M15.2 15.9v-2.4c0-.1 0-.1.1-.1v2.4c-.1 0-.1.1-.1.1zm0 0"/></g><path d="M14.3 16.3v-2.4c0-.2.1-.4.2-.6.2-.2.3-.5.4-.8v2.4c-.1.3-.2.5-.4.8-.1.2-.2.4-.2.6zm0 0" class="K"/><path d="M14.5 16.8c0-.1-.1-.3-.1-.4V14c.1.1.1.2.1.4zm0 0" class="L"/><path d="M14.5 14.4v2.4c0 .1 0 .2-.1.2-.3.1-.6.1-.9.1-.8-.1-1.6-.3-2.3-.7 0 0 0-.1-.1-.1-.4-.2-.7-.5-.7-.9v-2.3c0 .3.3.6.7.8h.1c.7.4 1.5.6 2.3.7.3.1.6.1.9-.1.1-.1.1-.1.1-.2zm2-1.1v2.3c0 .2-.2.5-.4.6s-.6.5-.8.3h-.1c0-.1-.1-.3-.1-.4v-2.4c0 .1 0 .3.1.4l.1.1c.2.1.6-.2.8-.3.2-.2.3-.4.4-.7zm0 0" class="K"/><path d="M16.7 14.3v2.4c-.7.5-1.4.7-2.2.7h-.4c-1.1 0-2.2-.3-3.2-.8-.5-.3-1-.7-1.4-1.1v-2.4c.4.4.9.8 1.4 1.1 1 .5 2.1.8 3.2.8h.4c.8 0 1.6-.3 2.2-.7zm.9-1.8v2.4c0 .7-.3 1.4-.8 1.8v-2.4c.5-.4.9-1.1.9-1.8zm0 0" class="L"/><path d="M16.3 13s.1 0 .1.1c.3.2 0 .6-.2.8s-.6.4-.8.3l-.1-.1c-.1-.2-.1-.4-.1-.6.1-.3.3-.5.6-.5.2 0 .4 0 .5.1zm-1.4-.5a3 3 0 0 1-.4.8c-.2.2-.3.5-.2.8.1.2.2.4 0 .6-.3.1-.6.1-.9.1-.8-.1-1.6-.3-2.3-.7H11c-.4-.2-.7-.5-.7-.8.1-.4.5-.8 1-.7.7 0 1.1.4 1.7.5.4 0 .8 0 1.1-.2.2-.2.5-.3.8-.2zm0 0" class="K"/><path d="M16.7 14.3c-.7.4-1.4.7-2.2.7h-.4c-1.1 0-2.2-.3-3.2-.8-.5-.3-1-.7-1.4-1.1-.2-.2-.5-.4-.7-.5l-.7-.4a3 3 0 0 1-1-.4c-.5-.3-.9-.8-.7-1.1s1.7-1 4.1-1 4.4.3 5.6 1h.2a3 3 0 0 1 1.2 1.3c.2.9-.1 1.7-.8 2.3zm-5.3-3.1c-.1.2-.1.3 0 .5s.2.3.4.3c.1.1.3.2.5.2.7.2 1.6-.1 2.4-.1.4 0 .9.2 1.3.4h.2c.1.1.3.1.4 0 .2-.1.3-.2.4-.4s-.1-.4-.2-.5c-.1-.2-.2-.4-.3-.5l-.6-.3c-.5-.1-1.1.1-1.6.1l-1-.1c-.6-.2-1.3 0-1.7.4m2 3.5c.3.1.6.1.9-.1.2-.2.1-.4 0-.6 0-.3 0-.6.2-.8s.3-.5.4-.8c-.3-.1-.6 0-.8.2-.4.2-.7.2-1.1.2-.6-.1-1.1-.5-1.7-.5-.5 0-.9.3-1 .7 0 .3.3.6.7.8h.1c.7.4 1.5.6 2.3.7m-3.9-2.3c.4.1.7.1 1.1-.1.2-.1.3-.3.2-.5v-.1c-.1-.2-.1-.4-.1-.6 0-.1 0-.2-.1-.4l-.7-.3c-.3 0-.7 0-1 .2L8 11c-.2.1-.4.2-.3.4l.2.2.8.4a2 2 0 0 0 .9.4m2.9-2.5l-.3.1.1.2c.1.1.1.2.1.2l-.1.1s0 .1.1.1h.5c.3 0 .6 0 .8.1l.4.1c.2.1.5.1.7.1s1.1-.1 1-.2h-.1a9 9 0 0 0-3.2-.8m-5.3 1.7h.1c0-.2.2-.4.5-.5.3-.2.6-.3.9-.4l1.2-.3c.1-.1.1-.1.1-.2h-.1c-.1-.1-.2-.1-.4 0H9l-1.1.2c-.4.1-.8.3-1.1.6-.1.1-.1.3-.1.5s.2.3.3.3h0s.1.1.1 0m8.3 2.7c.2.1.6-.2.8-.3s.5-.6.2-.8c0 0 0-.1-.1-.1-.2-.1-.4-.1-.5-.1-.3 0-.5.3-.6.5 0 .2 0 .4.1.6l.1.1m-4-4.4c-.2 0-.5.1-.5.3 0 .1.1.2.1.2h.1c.4.2 1-.1.9-.4l-.1-.1c-.1-.1-.3-.1-.5-.1" fill="rgb(100%,100%,100%)"/><path d="M14.5 15.1c-1.3.1-2.6-.2-3.8-.9-.5-.3-1-.7-1.4-1.1-.2-.2-.5-.4-.7-.5l-.7-.3c-.4-.1-.7-.2-1.1-.4-.5-.3-.8-.6-.8-1v2.4c.1.5.4.9.8 1 .3.2.7.3 1 .4l1.4.8c.4.5.9.8 1.4 1.1 1.2.6 2.5.9 3.8.8 2.8-.2 3.4-1.7 3.4-2.6v-2.4c0 1-.6 2.4-3.4 2.6zm0 0" fill="rgb(81.960784%,32.156863%,25.490196%)"/><path d="M17.8 12c.2.7.1 2.9-3.3 3.1-1.3.1-2.6-.2-3.8-.8-.5-.3-1-.7-1.4-1.1l-.7-.5-.7-.4a3 3 0 0 1-1-.4c-1.5-.9-1.4-2.5 3.6-2.5 3.2 0 5 .5 6.1 1.1.6.3 1 .8 1.3 1.4zm-3.3 3c.8 0 1.6-.3 2.2-.7.7-.5 1-1.4.8-2.3-.2-.6-.7-1-1.2-1.3h-.2c-1.2-.7-3.1-1-5.6-1s-4 .4-4.1 1 .2.8.7 1.1a3 3 0 0 0 1 .4l.8.4c.3.1.5.3.7.5.4.4.9.8 1.4 1.1 1 .5 2.1.8 3.2.8h.4" class="K"/><path d="M7.6 2.5C7.2 1.4 6.2.6 5.1.5a4 4 0 0 0-1.9.2c-.1 0-.2.1-.2.1S2.9 1 3 1c0 .1.1.3.2.3.8.1 1.4.7 1.6 1.4.1.1.2.2.3.2.7-.1 1.4-.1 2.2 0 .1 0 .2 0 .3-.1s.1-.2.1-.3zm-3.2 9.3c-.3.3-.7.5-1.1.5h-.2C2 11.6 1.2 10.7.6 9.7l-.4-1c0-.1 0-.2.1-.2.1-.1.2-.2.3-.2s.2.1.3.2c.4.8 1.2 1.3 2 1.4.5 0 .9-.1 1.3-.2.2 0 .4.1.5.3.1.8.1 1.5-.4 1.9zm0 0" class="M"/><path d="M11.8 7.8c-1.2.5-2.9.7-5 .2l-2.7-.8c-.8-.4-1.7-.2-2.3.4-.4.3-.7.7-.8 1.1-.1.1-.2.2-.4.2-.1 0-.2-.1-.3-.3C-.1 6.8.6 4.6 3 3l.8-.4L5 2.3c1.9-.3 3.8 0 5.2 1.3 1 1 1.6 2.4 1.7 3.8.1.1-.1.3-.2.4zm0 0" class="N"/><path d="M11.9 7.4a9 9 0 0 0-.6-2.2H.8C0 6.6-.1 8.3.6 9.7l.3-.9c.2-.4.5-.8.8-1.1.6-.6 1.6-.8 2.3-.4l2.7.8c2.1.4 3.8.3 5-.2.1-.1.2-.2.2-.4zm0 0" fill="rgb(64.705882%,58.823529%,66.666667%)"/><path d="M11.8 7.8c-1.3.6-2.9.5-4.3.4-.1 0-.2-.1-.2-.2-.5-.8-.7-1.8-.7-2.7a3 3 0 0 1 1.8-2.6h.3c1.6.7 2.9 2.2 3.3 4.9.1.1-.1.3-.2.4zm0 0" class="M"/><path d="M11.8 7.8c-1.3.6-2.9.5-4.3.4-.1 0-.2-.1-.2-.2-.5-.8-.7-1.8-.7-2.7h4.8c.3.7.5 1.4.6 2.2.1.1-.1.3-.2.4zm0 0" class="O"/><path d="M9.7 5.3c0 .2-.1.3-.4.3-.2 0-.3-.1-.4-.3 0-.2.2-.4.4-.4s.4.2.4.4zm0 0" class="N"/><path d="M9.7 5.3c0 .2-.1.3-.3.3-.1 0-.2-.2-.2-.3s.1-.2.2-.2.3.1.3.2zm0 0" fill="rgb(67.843137%,61.960784%,69.803922%)"/><path d="M9.5 5.3c0 .1-.1.2-.2.2l-.2-.2c0-.1.1-.2.2-.2s.2.1.2.2zm0 0" class="O"/></svg>