<?xml version="1.0" encoding="utf-8"?><svg xmlns="http://www.w3.org/2000/svg" width="24" height="24" viewBox="0 0 18 18"  xmlns:v="https://vecta.io/nano"><path d="M16.8 7.7c-.3-.2-.7-.4-.7-.6s.1-.5.2-.9.5-1.1.2-1.6-.9-.5-1.5-.6c-.3 0-.6-.1-.9-.2-.1-.3-.2-.6-.2-.9-.1-.6-.1-1.2-.6-1.5s-1 0-1.6.2c-.3.1-.6.2-.9.2-.2 0-.4-.4-.6-.7S9.5.2 9 .2s-1 .5-1.3 1-.4.7-.7.7l-.8-.2c-.5-.2-1.1-.5-1.6-.2s-.5.9-.6 1.5c0 .3-.1.6-.2.9-.3.1-.6.2-.9.2-.6.1-1.2.1-1.5.6s0 1 .2 1.6.3.7.2.9-.4.4-.7.6-1 .8-1 1.3.5 1 1 1.3.7.4.7.6-.1.5-.2.9-.5 1.1-.2 1.6.9.5 1.5.6c.3 0 .6.1.9.2.1.3.2.6.2.9.1.6.1 1.2.6 1.5s1 0 1.6-.2c.3-.1.6-.2.9-.2.2 0 .4.4.6.7s.8 1 1.3 1 1-.5 1.3-1 .4-.7.7-.7l.8.2c.5.2 1.1.5 1.6.2s.5-.9.6-1.5c0-.3.1-.6.2-.9.3-.1.6-.2.9-.2.6-.1 1.2-.1 1.5-.6s0-1-.2-1.6-.3-.7-.2-.9.4-.4.7-.6 1-.8 1-1.3-.5-1-1-1.3zm0 0" fill="rgb(96.862745%,58.039216%,11.372549%)"/><path d="M16.3 9.7c-.4.2-.8.6-1 1 0 .5.1 1 .3 1.4.2.3.3.6.3.9-.3.1-.6.2-1 .2-.5 0-.9.1-1.3.4-.3.4-.4.8-.4 1.3 0 .3-.1.7-.2 1h-.1c-.3 0-.5-.1-.8-.3-.4-.2-.9-.3-1.4-.3-.5.2-.8.5-1.1 1-.2.3-.5.7-.7.7s-.5-.4-.7-.7c-.2-.4-.6-.8-1.1-1H7a4 4 0 0 0-1.1.3c-.2.2-.5.3-.8.3H5c-.1-.3-.2-.6-.2-1 0-.5-.1-.9-.4-1.3-.4-.3-.8-.4-1.3-.4-.3 0-.7-.1-1-.2 0-.3.1-.6.3-.9.2-.4.3-.9.3-1.4-.2-.5-.5-.8-1-1.1-.3-.2-.7-.5-.7-.7s.4-.5.7-.7c.4-.2.8-.6 1-1.1 0-.5-.1-1-.3-1.4-.2-.3-.3-.6-.3-.9.3-.1.6-.2 1-.2.5 0 .9-.1 1.3-.4.3-.4.4-.8.4-1.3 0-.3.1-.7.2-1h.1c.3 0 .5.1.8.3.4.2.9.3 1.4.3.5-.2.8-.5 1.1-1 .2-.3.5-.7.7-.7s.5.4.7.7c.2.4.6.8 1.1 1 .5 0 .9-.1 1.4-.3.2-.2.5-.3.8-.3h.1c.1.3.2.6.2 1 0 .5.1.9.4 1.3.4.3.8.4 1.3.4.3 0 .7.1 1 .2 0 .3-.1.6-.3.9-.2.4-.3.9-.3 1.4.2.5.5.8 1 1.1.3.2.7.5.7.7s-.4.5-.7.7zm0 0" fill="rgb(100%,82.352941%,0%)"/><path d="M6.7 7.1c-.2 0-.4.2-.4.4v1.9L4.7 7.3c-.1-.1-.3-.2-.4-.1-.2 0-.3.2-.3.4v3c0 .2.2.4.4.4s.4-.2.4-.4v-2l1.6 2.1c.1.1.2.2.3.2h.1c.1 0 .2-.2.2-.4v-3c0-.1 0-.2-.1-.3S6.7 7 6.6 7zm3.1.8c.2 0 .4-.2.4-.4s-.2-.4-.4-.4H8.2c-.2 0-.4.2-.4.4v3c0 .2.2.4.4.4h1.6c.2 0 .4-.2.4-.4s-.2-.4-.4-.4H8.6v-.8h1.1c.2 0 .4-.2.4-.4s-.2-.4-.4-.4H8.6v-.8zm4.6-.8c-.2 0-.3.1-.4.3l-.5 1.8-.3-1.1c-.1-.1-.2-.2-.4-.2s-.3.1-.4.2l-.3 1.1-.5-1.8c-.1-.2-.2-.3-.4-.3-.2.1-.3.3-.3.5l.8 3.1c0 .2.2.3.4.3s.3-.1.4-.3l.4-1.2.4 1.2c0 .2.2.3.4.3s.3-.1.4-.3l.8-3.1c0-.2-.1-.4-.3-.5zm0 0" fill="rgb(71.764706%,8.235294%,21.960784%)"/></svg>