<?xml version="1.0" encoding="utf-8"?><svg xmlns="http://www.w3.org/2000/svg" width="24" height="24" viewBox="0 0 18 18"  xmlns:v="https://vecta.io/nano"><style><![CDATA[.B{fill:rgb(75.686275%,78.431373%,81.960784%)}.C{fill:rgb(26.666667%,44.705882%,69.019608%)}.D{fill:rgb(92.156863%,96.862745%,99.607843%)}]]></style><path d="M3.2 11.9h11.6v5.2H3.2zm0 0" fill="rgb(71.764706%,54.901961%,39.607843%)"/><path d="M.3 10.1h17.4v1.7H.3zm14.5 1.8h1.7v5.8h-1.7zm-13.4 0h1.7v5.8H1.4zm0 0" fill="rgb(65.882353%,48.235294%,31.764706%)"/><path d="M10.7 9h6.4v1.1h-6.4zm0 0" fill="rgb(55.686275%,60.392157%,65.882353%)"/><path d="M11.3 9V5.5c0-.3.2-.6.5-.6H16c.3 0 .6.3.6.6V9zm0 0" class="B"/><path d="M7.3 7.3h2.3v2.9H7.3zm0 0" fill="rgb(100%,82.352941%,0%)"/><path d="M.9 9h2.9v1.1H.9zm0 0" fill="rgb(96.862745%,84.705882%,50.588235%)"/><path d="M.3 7.9h2.9V9H.3zm0 0" class="C"/><path d="M14.8 7c0 .5-.4.9-.9.9S13 7.5 13 7s.4-.9.9-.9.9.4.9.9zm0 0" class="D"/><path d="M7.3 9.3h-.6c-.5 0-.8-.4-.8-.9 0-.5.4-.8.8-.8h.6v.6h-.6c-.1 0-.2.1-.2.2 0 .1.1.3.2.3h.6zm0 0" fill="rgb(96.862745%,58.039216%,11.372549%)"/><g class="B"><path d="M7.7 6.6l-.4-.4.4-.4c.1-.2.1-.4 0-.6L7.6 5c-.2-.2-.3-.4-.3-.7v-.3h.6v.3c0 .1 0 .2.1.3l.2.1c.4.4.4 1 0 1.4zm0 0"/><path d="M8.9 6.6l-.4-.4.4-.4c.1-.1.1-.2.1-.3s0-.2-.1-.3L8.7 5c-.2-.2-.3-.4-.3-.7v-.3H9v.3c0 .1.1.2.1.3l.2.1c.4.4.4 1 0 1.4zm0 0"/></g><path d="M6.1 3.2c0 1.6-1.3 2.9-2.9 2.9S.3 4.8.3 3.2 1.6.3 3.2.3s2.9 1.3 2.9 2.9zm0 0" class="C"/><g class="D"><path d="M3.5.3H3v.8h.5zm-.6 5.8h.5v-.9h-.5zm0 0"/><path d="M.3 3.2v.3h.9V3H.3zm4.9.3h.9V3h-.9zm0 0"/><path d="M5 1l-.6.6.4.4.6-.5c-.1-.2-.3-.3-.4-.4zM1 5l.4.4.5-.6-.4-.4zm0 0"/><path d="M1 1.4l.6.5.4-.4-.6-.6zm3.9 3l-.4.4.6.6.4-.4zm0 0"/><path d="M4.1 4.6L3 3.4c-.1-.1-.1-.1-.1-.2V1.7h.5v1.3l1.1 1.1zm0 0"/></g></svg>