<?xml version="1.0" encoding="utf-8"?><svg xmlns="http://www.w3.org/2000/svg" width="24" height="24" viewBox="0 0 18 18"  xmlns:v="https://vecta.io/nano"><style><![CDATA[.B{fill:rgb(100%,87.843137%,49.019608%)}.C{fill:rgb(100%,81.568627%,39.215686%)}]]></style><path d="M5.6 16L8 10l-2-.8L3.2 16c-.1.1 0 .3.1.4s.3.1.4.1l1.6-.5h.3zm0 0" class="B"/><path d="M7.9 9.9L5.4 16c.1 0 .3.1.3.2l.8 1.5c.1.1.2.2.4.2s.3-.1.4-.2l2.8-6.9zm0 0" class="C"/><path d="M10.1 9.9l-2.2.9 2.8 6.9c.1.1.2.2.4.2s.3-.1.4-.2l.8-1.5c0-.1.1-.1.1-.1l.2-.2zm0 0" class="B"/><path d="M14.8 16l-2.9-6.9-2.1.8 2.5 6.1h.4l1.6.5c.1.1.4.1.5 0s.1-.4 0-.5zm0 0" class="C"/><path d="M9.7.4c.3.2.7.3 1.1.2.5-.2 1.1.1 1.3.5.2.3.5.5.9.5.5 0 1 .4 1.1 1 0 .4.3.7.7.9.5.2.8.7.7 1.3-.1.4 0 .8.2 1 .4.4.5 1 .2 1.4-.2.3-.3.7-.1 1.1.2.5 0 1.1-.4 1.4-.3.2-.5.6-.5 1 0 .5-.3 1-.8 1.1-.4.1-.6.4-.8.7-.2.5-.7.8-1.3.8-.4-.1-.7.1-1 .4-.4.4-1 .5-1.4.2-.3-.2-.7-.2-1.1 0-.5.2-1.1.1-1.4-.2-.2-.3-.6-.5-1-.4-.5.1-1.1-.3-1.3-.8-.1-.3-.4-.6-.8-.7-.5-.1-.9-.6-.8-1.1 0-.4-.2-.7-.5-1-.4-.3-.6-.9-.4-1.4.1-.4.1-.8-.1-1.1-.3-.5-.2-1.1.2-1.4.3-.3.4-.7.2-1-.1-.5.2-1 .7-1.3.4-.2.6-.5.7-.9.1-.5.5-.9 1.1-1 .4 0 .7-.2.9-.5.3-.5.8-.7 1.3-.5.4.1.8.1 1.1-.2.4-.4 1-.4 1.4 0zm0 0" fill="rgb(93.72549%,66.666667%,27.058824%)"/><path d="M12.2 7.1c0-2.3-1.5-4.3-3.7-5.1-2.6.3-4.6 2.5-4.6 5.1 0 2.6 2 4.8 4.6 5 2.2-.7 3.6-2.8 3.7-5zm0 0" class="B"/><path d="M9 2l-1.1.1c2.3.5 4 2.6 4 5s-1.7 4.5-4 5l1.1.1c2.8 0 5.1-2.3 5.1-5.1S11.8 2 9 2zm0 0" class="C"/><path d="M9.1 9l1.8 1.2h.2l.2-.3-.6-2c0-.1 0-.2.1-.3l1.3-1a3 3 0 0 0-.1-.7h-1.8c-.1 0-.2-.1-.2-.2l-.7-2c0-.1-.1-.2-.2-.2s-.2.1-.2.2l-.7 2c-.1.1-.1.2-.2.2H5.7c-.2 0-.4.3-.2.4l1.7 1.4c.1.1.1.2.1.3l-.6 2c0 .1 0 .2.1.2s.2.1.3 0L8.9 9zm0 0" fill="rgb(90.980392%,68.235294%,30.196078%)"/><path d="M10.9 10.2h.3c.1 0 .1-.1.1-.2l-.1-.4-.4.6zm1.4-4.3h-.6a6 6 0 0 1 .1 1l.7-.5c.2-.1.1-.4-.2-.4zm0 0" fill="rgb(89.803922%,63.921569%,18.039216%)"/></svg>